<svg width="1920" height="2491" viewBox="0 0 1920 2491" fill="none" xmlns="http://www.w3.org/2000/svg">
<path d="M404.5 471.5L930.5 496.5L1214 434.5L1530.5 461.5L1924.5 0L1982.5 645L1121.5 961.5L429.5 874.5L-150 1021L404.5 471.5Z" fill="#D9D9D9"/>
<path d="M1416 1596.5H906.5L631.5 1647.5L452.5 1393L0.5 1307.5V1629H406.5L699 1877L1348 1888.5L2050.5 2069L1416 1596.5Z" fill="#D9D9D9"/>
<path d="M635 2248H1144.5L1419.5 2299L1603.5 2248L2012.5 2156L2050.5 2280.5L1821.5 2434.5L1352 2528.5L703 2540L0.5 2720.5L635 2248Z" fill="#D9D9D9"/>
</svg>
